<svg fill="none" height="617" viewBox="0 0 603 617" width="603" xmlns="http://www.w3.org/2000/svg" xmlns:xlink="http://www.w3.org/1999/xlink"><linearGradient id="a"><stop offset="0" stop-color="#20267f"/><stop offset=".24" stop-color="#212881"/><stop offset=".42" stop-color="#252f8b"/><stop offset=".57" stop-color="#2c3b9b"/><stop offset=".71" stop-color="#364db1"/><stop offset=".85" stop-color="#4363ce"/><stop offset=".98" stop-color="#527ef2"/><stop offset="1" stop-color="#5684f9"/></linearGradient><linearGradient id="b" gradientUnits="userSpaceOnUse" x1="214.901" x2="269.527" xlink:href="#a" y1="205.44" y2="230.047"/><linearGradient id="c" gradientUnits="userSpaceOnUse" x1="153.469" x2="372.407" xlink:href="#a" y1="191.594" y2="265.396"/><linearGradient id="d"><stop offset="0" stop-color="#e8f0fd"/><stop offset=".17" stop-color="#dee8fc"/><stop offset=".46" stop-color="#c3d6fb"/><stop offset=".83" stop-color="#98b7fa"/><stop offset="1" stop-color="#83a8fa"/></linearGradient><linearGradient id="e" gradientUnits="userSpaceOnUse" x1="295.146" x2="263.034" xlink:href="#d" y1="110.449" y2="128.796"/><linearGradient id="f"><stop offset="0" stop-color="#f1cfba"/><stop offset="1" stop-color="#d388a1"/></linearGradient><linearGradient id="g" gradientUnits="userSpaceOnUse" x1="171.655" x2="183.235" xlink:href="#f" y1="82.2513" y2="82.2513"/><linearGradient id="h" gradientUnits="userSpaceOnUse" x1="181.595" x2="186.49" xlink:href="#f" y1="69.5479" y2="69.5479"/><linearGradient id="i" gradientUnits="userSpaceOnUse" x1="313.069" x2="344.028" xlink:href="#d" y1="145.767" y2="150.146"/><linearGradient id="j" gradientUnits="userSpaceOnUse" x1="249.239" x2="281.371" xlink:href="#f" y1="125.266" y2="125.266"/><linearGradient id="k" gradientUnits="userSpaceOnUse" x1="257.674" x2="280.592" xlink:href="#f" y1="131.587" y2="131.587"/><linearGradient id="l" gradientUnits="userSpaceOnUse" x1="317.103" x2="348.062" xlink:href="#d" y1="117.236" y2="121.615"/><linearGradient id="m" gradientUnits="userSpaceOnUse" x1="312.987" x2="317.559" xlink:href="#f" y1="38.134" y2="38.134"/><linearGradient id="n" gradientUnits="userSpaceOnUse" x1="345.01" x2="270.569" xlink:href="#a" y1="53.0627" y2="-2.36537"/><linearGradient id="o" gradientUnits="userSpaceOnUse" x1="282.179" x2="315.333" xlink:href="#f" y1="55.1862" y2="50.9585"/><linearGradient id="p" gradientUnits="userSpaceOnUse" x1="290.837" x2="316.951" xlink:href="#f" y1="54.0838" y2="50.7563"/><linearGradient id="q" gradientUnits="userSpaceOnUse" x1="289.967" x2="300.456" xlink:href="#f" y1="63.5506" y2="62.2054"/><linearGradient id="r" gradientUnits="userSpaceOnUse" x1="280.45" x2="313.604" xlink:href="#f" y1="41.6136" y2="37.3859"/><linearGradient id="s" gradientUnits="userSpaceOnUse" x1="282.463" x2="313.472" xlink:href="#f" y1="41.3505" y2="37.406"/><linearGradient id="t" gradientUnits="userSpaceOnUse" x1="313.472" x2="318.044" xlink:href="#f" y1="38.134" y2="38.134"/><linearGradient id="u"><stop offset="0" stop-color="#ff6984"/><stop offset="1" stop-color="#252d4d"/></linearGradient><linearGradient id="v" gradientUnits="userSpaceOnUse" x1="399.21" x2="446.563" xlink:href="#u" y1="563.397" y2="563.397"/><linearGradient id="w" gradientUnits="userSpaceOnUse" x1="398.522" x2="445.562" xlink:href="#u" y1="446.257" y2="446.257"/><linearGradient id="x" gradientUnits="userSpaceOnUse" x1="282.696" x2="299.03" xlink:href="#u" y1="490.091" y2="490.091"/><linearGradient id="y" gradientUnits="userSpaceOnUse" x1="254.67" x2="452.196" xlink:href="#u" y1="470.581" y2="353.421"/><linearGradient id="z"><stop offset="0" stop-color="#fed1bc"/><stop offset="1" stop-color="#eb8aa4"/></linearGradient><linearGradient id="A" gradientUnits="userSpaceOnUse" x1="359.905" x2="426.506" xlink:href="#z" y1="291.574" y2="291.574"/><linearGradient id="B" gradientUnits="userSpaceOnUse" x1="418.942" x2="385.789" xlink:href="#z" y1="225.347" y2="225.347"/><linearGradient id="C" gradientUnits="userSpaceOnUse" x1="385.789" x2="415.535" xlink:href="#z" y1="224.447" y2="224.447"/><linearGradient id="D" gradientUnits="userSpaceOnUse" x1="407.099" x2="417.749" xlink:href="#z" y1="237.858" y2="237.858"/><linearGradient id="E" gradientUnits="userSpaceOnUse" x1="434.01" x2="401.655" xlink:href="#z" y1="215.85" y2="215.85"/><linearGradient id="F" gradientUnits="userSpaceOnUse" x1="401.666" x2="432.342" xlink:href="#z" y1="215.84" y2="215.84"/><linearGradient id="G" gradientUnits="userSpaceOnUse" x1="397.622" x2="402.022" xlink:href="#z" y1="211.491" y2="211.491"/><linearGradient id="H"><stop offset=".57" stop-color="#172182"/><stop offset=".63" stop-color="#182688"/><stop offset=".72" stop-color="#1d369b"/><stop offset=".82" stop-color="#244fbb"/><stop offset=".94" stop-color="#2e72e6"/><stop offset="1" stop-color="#3486fe"/></linearGradient><linearGradient id="I" gradientUnits="userSpaceOnUse" x1="417.121" x2="454.907" xlink:href="#H" y1="310.517" y2="310.517"/><linearGradient id="J" gradientUnits="userSpaceOnUse" x1="421.419" x2="500.855" xlink:href="#H" y1="280.61" y2="280.61"/><linearGradient id="K" gradientUnits="userSpaceOnUse" x1="490.599" x2="519.333" xlink:href="#z" y1="284.352" y2="284.352"/><linearGradient id="L" gradientUnits="userSpaceOnUse" x1="267.654" x2="411.324" xlink:href="#H" y1="315.351" y2="316.039"/><linearGradient id="M" gradientUnits="userSpaceOnUse" x1="328.168" x2="475.883" xlink:href="#H" y1="304.206" y2="304.904"/><linearGradient id="N" gradientUnits="userSpaceOnUse" x1="437.914" x2="472.605" xlink:href="#z" y1="363.009" y2="363.009"/><linearGradient id="O" gradientUnits="userSpaceOnUse" x1="449.647" x2="463.675" xlink:href="#z" y1="357.638" y2="357.638"/><linearGradient id="P" gradientUnits="userSpaceOnUse" x1="449.667" x2="555.197" xlink:href="#H" y1="365.355" y2="365.355"/><linearGradient id="Q" gradientUnits="userSpaceOnUse" x1="472.534" x2="506.568" xlink:href="#H" y1="356.465" y2="356.465"/><linearGradient id="R" gradientUnits="userSpaceOnUse" x1="502.351" x2="602.247" xlink:href="#H" y1="346.401" y2="346.401"/><linearGradient id="S" gradientUnits="userSpaceOnUse" x1="620.362" x2="523.642" xlink:href="#H" y1="221.878" y2="401.695"/><linearGradient id="T" gradientUnits="userSpaceOnUse" x1="428.852" x2="456.957" y1="101.32" y2="133.592"><stop offset="0" stop-color="#41d1ff"/><stop offset="1" stop-color="#bd34fe"/></linearGradient><linearGradient id="U" gradientUnits="userSpaceOnUse" x1="432.228" x2="450.22" y1="106.671" y2="131.093"><stop offset="0" stop-color="#ffea83"/><stop offset=".08" stop-color="#ffdd35"/><stop offset="1" stop-color="#ffa800"/></linearGradient><linearGradient id="V"><stop offset="0" stop-color="#52ce63"/><stop offset="1" stop-color="#51a256"/></linearGradient><linearGradient id="W" gradientUnits="userSpaceOnUse" x1="533.081" x2="525.438" xlink:href="#V" y1="121.313" y2="132.636"/><linearGradient id="X" gradientUnits="userSpaceOnUse" x1="558.752" x2="547.429" xlink:href="#V" y1="148.361" y2="140.718"/><linearGradient id="Y" gradientUnits="userSpaceOnUse" x1="548.08" x2="539.577" y1="111.909" y2="130.966"><stop offset="0" stop-color="#8ae99c"/><stop offset="1" stop-color="#52ce63"/></linearGradient><linearGradient id="Z" gradientUnits="userSpaceOnUse" x1="534.296" x2="516.281" y1="142.073" y2="183.919"><stop offset="0" stop-color="#ffe56c"/><stop offset="1" stop-color="#ffc63a"/></linearGradient><linearGradient id="aa"><stop offset="0" stop-color="#172182"/><stop offset=".14" stop-color="#182688"/><stop offset=".35" stop-color="#1d369b"/><stop offset=".59" stop-color="#244fbb"/><stop offset=".87" stop-color="#2e72e6"/><stop offset="1" stop-color="#3486fe"/></linearGradient><linearGradient id="ab" gradientUnits="userSpaceOnUse" x1="129.973" x2="401.625" xlink:href="#aa" y1="297.174" y2="297.892"/><linearGradient id="ac" gradientUnits="userSpaceOnUse" x1="103.91" x2="-20.4822" xlink:href="#aa" y1="359.082" y2="358.01"/><linearGradient id="ad" gradientUnits="userSpaceOnUse" x1="50.3458" x2="78.4728" xlink:href="#z" y1="342.909" y2="342.909"/><linearGradient id="ae" gradientUnits="userSpaceOnUse" x1="159.295" x2="194.745" xlink:href="#z" y1="319.961" y2="319.961"/><linearGradient id="af" gradientUnits="userSpaceOnUse" x1="165.465" x2="194.745" xlink:href="#z" y1="319.971" y2="319.971"/><linearGradient id="ag" gradientUnits="userSpaceOnUse" x1="150.284" x2="259.293" xlink:href="#u" y1="320.558" y2="320.558"/><linearGradient id="ah" gradientUnits="userSpaceOnUse" x1="101.938" x2="120.983" xlink:href="#z" y1="285.623" y2="285.623"/><linearGradient id="ai" gradientUnits="userSpaceOnUse" x1="159.498" x2="207.59" xlink:href="#z" y1="497.674" y2="497.674"/><linearGradient id="aj" gradientUnits="userSpaceOnUse" x1="168.418" x2="204.363" xlink:href="#z" y1="526.943" y2="526.943"/><linearGradient id="ak" gradientUnits="userSpaceOnUse" x1="125.211" x2="214.842" xlink:href="#z" y1="479.681" y2="479.681"/><linearGradient id="al" gradientUnits="userSpaceOnUse" x1="139.593" x2="214.841" xlink:href="#z" y1="479.681" y2="479.681"/><linearGradient id="am" gradientUnits="userSpaceOnUse" x1="152.942" x2="169.276" xlink:href="#z" y1="300.269" y2="300.269"/><linearGradient id="an" gradientUnits="userSpaceOnUse" x1="162.026" x2="165.222" xlink:href="#z" y1="298.084" y2="298.084"/><linearGradient id="ao" gradientUnits="userSpaceOnUse" x1="153.176" x2="169.277" xlink:href="#z" y1="300.249" y2="300.249"/><linearGradient id="ap" gradientUnits="userSpaceOnUse" x1="39.5849" x2="111.758" xlink:href="#aa" y1="294.008" y2="212.641"/><mask id="aq" height="50" maskUnits="userSpaceOnUse" width="37" x="300" y="328"><path d="m327.045 328.871c2.994 3.469 10.205 8.283 9.79 11.348-.414 3.075-7.949 20.643-12.035 26.964-4.086 6.331-13.836 10.994-16.86 10.407-5.421-1.052-9.69-1.79-5.725-6.635 5.755-7.029 9.072-22.706 4.905-30.139-4.167-7.444 19.925-11.955 19.925-11.955z" fill="#fff"/></mask><mask id="ar" height="35" maskUnits="userSpaceOnUse" width="50" x="181" y="298"><path d="m227.988 302.443c.496 4.157 3.51 11.419 1.608 13.603-1.901 2.185-22.362 12.42-28.744 15.333s-17.517.121-19.398-1.254c-1.881-1.376 2.882-5.765 9.709-10.458s14.777-9.881 15.444-17.689c.658-7.818 21.391.475 21.391.475z" fill="#fff"/></mask><path d="m327.045 328.871c2.994 3.469 10.205 8.283 9.79 11.348-.414 3.075-7.949 20.643-12.035 26.964-4.086 6.331-13.836 10.994-16.86 10.407-5.421-1.052-9.689-1.79-5.725-6.635 5.755-7.029 9.072-22.706 4.906-30.139-4.167-7.444 19.924-11.955 19.924-11.955z" fill="#c7d9fd"/><g mask="url(#aq)"><path d="m344.745 333.321c-.789-.05-11.409-.991-11.409-.991-.172 7.929-3.044 13.927-5.482 19.439-2.437 5.522-4.521 12.016-6.756 14.928-3.722 4.865-15.312 9.113-20.359 7.748-4.4-1.194-2.478 8.435-2.478 8.435l21.441-1.891 21.978-33.882s3.843-13.745 3.055-13.796z" fill="#5684f9"/></g><path d="m227.989 302.443c.496 4.157 3.51 11.419 1.608 13.603-1.901 2.185-22.362 12.42-28.744 15.333s-17.517.121-19.398-1.254c-1.882-1.376 2.882-5.765 9.709-10.458s14.777-9.881 15.444-17.689c.657-7.818 21.391.475 21.391.475z" fill="#c7d9fd"/><g mask="url(#ar)"><path d="m231 308.208c-4.228 6.068-13.593 9.942-18.296 13.037-4.713 3.095-15.404 9.103-18.843 8.981-3.438-.131-5.613-3.469-9.962-3.388s-5.785 3.449-5.785 3.449l17.345 9.032 34.287-15.546s10.033-8.789 9.456-9.213c-.576-.425-8.202-6.352-8.202-6.352z" fill="#5684f9"/></g><path d="m275.059 159.522c-3.701 2.812-31.191 12.046-58.448 31.009-28.451 19.794-23.364 24.365-21.412 33.882 3.995 19.46 18.276 55.789 14.686 75.117-.728 3.914 18.114 5.553 18.114 2.923 0-2.791.253-5.623.799-13.624 3.823-55.798-8.991-55.707-4.015-59.601 23.06-18.003 78.535-23.404 98.743-44.937 29.613-31.545-28.603-39.849-48.467-24.759z" fill="url(#b)"/><path d="m279.348 173.49c-.87 11.277-14.119 42.013-26.043 73.013-12.441 32.354-5.664 33.285 1.294 40.061 14.231 13.867 45.392 35.956 52.522 54.272 1.224 3.145 22.747-9.173 19.925-11.955-1.972-1.942-4.45-.93-8.486-7.858-28.157-48.325-38.706-41.063-36.764-47.081 8.981-27.844 51.864-63.445 56.507-92.604 6.806-42.731-56.366-41.376-58.945-7.838z" fill="url(#c)"/><path d="m291.959 54.4784-2.66 20.3089 38.069-8.9812.405-10.2759c-4.198-3.6612-15.596-4.4501-15.596-4.4501z" fill="#83a8fa"/><path d="m317.314 69.093c-27.419 3.8231-33.558-6.5842-33.558-6.5842l-11.752 19.6414-7.242 91.9768s23.232 5.664 55.111 3.135c0 0 24.86-111.982-2.549-108.1589z" fill="#df6981"/><path d="m281.754 71.3179s-24.426 101.0191-16.992 102.7991c5.694 1.365 13.957 2.326 13.957 2.326s8.051-24.223 10.671-60.977c1.982-27.8342 11.105-45.7967 11.105-45.7967s-5.957-2.5285-9.062-4.7839c-2.367-1.7194-9.679 6.4426-9.679 6.4426z" fill="#a9bad6"/><path d="m291.96 54.4784s-1.315 2.6094-10.407 4.1366c-8.607 1.4463-12.623 13.6944-14.797 22.2913-5.006 19.8237-.536 51.2067-4.663 71.7287-2.7 13.391-11.57 19.166-26.913 24.951-16.061 6.058 10.589 21.381 10.589 21.381s23.95-21.179 26.115-29.816c8.485-33.862 8.728-67.481 17.416-94.3637.496-1.5272 4.4-9.8308 4.4-9.8308-2.711-6.564-1.74-10.4882-1.74-10.4882z" fill="url(#e)"/><path d="m297.271 76.1828-77.858-29.6542c-4.865-1.8509-11.075-.5664-13.866 2.8622l-53.301 65.4272c-2.802 3.439-1.123 7.717 3.742 9.568l77.858 29.654c4.865 1.851 11.075.567 13.866-2.862l53.301-65.4274c2.802-3.4387 1.123-7.7169-3.742-9.5678z" fill="#83a8fa"/><path d="m296.562 75.0095-77.858-29.6543c-4.865-1.8508-11.075-.5664-13.866 2.8623l-53.301 65.4275c-2.802 3.439-1.123 7.717 3.742 9.568l77.858 29.654c4.865 1.851 11.075.566 13.866-2.862l53.301-65.4277c2.801-3.4387 1.123-7.717-3.742-9.5678z" fill="#c7d9fd"/><path d="m178.35 73.5331c-2.609 0-6.695 6.3617-6.695 8.2024 0 1.8408.404 6.4426.404 6.4426 1.669 5.1177 7.181 2.2352 7.181-1.0923v-4.4097s1.497 3.8332 2.609 3.4287c1.113-.4046 1.093-1.2542.162-3.9142-.92-2.67-1.365-4.3085-1.365-4.3085l2.589-2.9836s-2.276-1.3756-4.885-1.3756z" fill="url(#g)"/><path d="m181.848 66.008c-1.224 1.2238 2.387 7.4844 2.387 7.4844l2.245-2.7611c-3.57-4.339-3.418-5.9471-4.642-4.7233z" fill="url(#h)"/><path d="m296.855 150.622c-1.77-1.871.536-3.692 0 0z" fill="#c7d9fd"/><path d="m344.817 75.6163c-7.373-4.9558-8-5.9976-9.902-8.5362-1.901-2.5487-7.14-11.5401-7.14-11.5401s-6.058 8.4958-21.219 11.5907c0 0 2.498 10.7714 1.901 15.3025-.859 6.6044-.273-15.1609-23.393 151.1438 0 0 34.761 8.678 41.477-2.397 20.299-33.467 8.213-63.567 20.542-108.554 2.235-8.142 4.602-42.3775-2.276-46.9996z" fill="url(#i)"/><path d="m335.573 93.1437c-15.403 6.8773-20.703 39.8893-22.635 44.1883-1.922 4.298-3.954 5.229-4.086 8.051-.131 2.811.516 4.996-2.427 4.298-3.945-.93-1.922 4.4-7.576 2.185-.95-.375-1.588-.81-1.992-1.244-.081.576-.233 1.294-.486 2.164-1.962 6.776-6.968 49.882-6.968 49.882 37.219 8.122 34.165-33.396 34.863-36.916 1.213-6.18 9.416-16.425 9.416-16.425s7.09-15.262 13.027-30.19c6.442-16.213-9.123-26.8732-11.115-25.9832z" fill="#c7d9fd"/><path d="m305.798 66.8781s2.064 11.8839 2.306 13.1583c.243 1.2744-.101 3.4893-.738 5.5526s-9.032 50.873-9.032 50.873 2.751 14.423 3.732 10.691 10.013-45.958 11.591-54.201c1.567-8.253 4.521-7.0697-1.184-27.2977z" fill="#fff"/><path d="m273.502 116.315c-3.964-3.924-5.512-1.669-3.044.769 2.468 2.437 1.962 3.833 1.497 4.005s-4.875-2.539-6.655-4.298c-1.78-1.76-4.4-2.994-6.372-3.267-2.569-.364-4.602 2.407-.678 2.508 1.942.051 4.825 2.549 5.007 3.044-3.287-1.072-6.22-1.426-9.346-.263-3.125 1.163-8.172 5.694-1.031 6.271 7.14.576 9.143 6.443 21.118 11.945 0 0 9.659-4.451 6.867-7.212-2.791-2.761-3.398-9.588-7.363-13.502z" fill="url(#j)"/><path d="m257.674 126.52c6.301 5.199 13.988 9.72 17.244 10.944 0 0 3.955-2.519 5.674-4.845-8.769-6.999-12.005-5.977-15.818-6.392-3.965-.435-5.998-1.011-7.1.303z" fill="url(#k)"/><path d="m334.783 79.3687c-15.404 6.8775-20.704 39.8893-22.635 44.1883-1.932 4.298-3.955 5.229-4.086 8.05-.132 2.812.515 4.997-2.428 4.299-3.944-.931-21.492-6.564-27.156-8.779-5.654-2.215-10.276 8.83-4.298 14.22 5.977 5.401 23.221 12.167 32.182 14.362s12.188 2.539 12.875-.981c1.214-6.18 5.695-3.914 5.422-7.343-.284-3.428-.142-4.055 2.144-5.795s6.068-6.048 6.068-6.048 7.09-15.262 13.027-30.19c6.443-16.2132-9.123-26.8734-11.115-25.9833z" fill="url(#l)"/><path d="m312.158 123.557c-1.921 4.298-3.954 5.229-4.086 8.05-.131 2.812.516 4.997-2.427 4.299-3.945-.931-21.492-6.564-27.156-8.779-1.77-.698-3.449-.081-4.723 1.244 5.835 2.336 21.886 8.819 27.307 11.591 6.676 3.418 11.045 1.153 13.351-1.164 2.306-2.306 2.549-1.668 4.713-18.164s7.859-15.91 5.795-31.9504c-8.02 12.3894-11.348 31.6464-12.784 34.8634z" fill="#fff"/><path d="m313.22 37.4463c-.283 1.0518-.556 3.3983.89 4.2883 3.277 2.0127 3.874-4.8041 3.216-6.4527-.657-1.6486-3.014-1.8711-4.106 2.1644z" fill="url(#m)"/><path d="m277.093 28.0503c-9.325-11.3782 2.063-17.8512 11.763-24.03084 3.843-2.44759 19.388-8.58679 24.294 1.90144 4.713-.2124 8.192 2.50827 9.072 12.9156 1.092 12.9965-3.874 17.8916-6.048 28.3799l-31.222-19.8437z" fill="url(#n)"/><path d="m309.599 37.7699 1.497-.2023c-3.115-6.0481-10.802-16.4554-8.314-23.3734.506-1.4261 4.066-5.5425 8.223-8.0002.546-1.60812-.981-3.29716-5.097-1.53733-5.189 2.21497-5.917 5.71443-11.288 12.16713-4.895 5.8763-6.331 4.258-14.442 7.1102-1.619.5663-2.923 2.3161-3.621 3.4286.172.2326.344.4551.536.6878l7.858-.6777 7.576 4.8143 17.082 5.5829z" fill="#9eb4e2"/><path d="m305.411 39.3679c4.622-1.8913 6.402-2.5285 6.402-2.5285.678-1.4969.981-5.0368 4.157-5.5324 6.23-.981 4.015 12.7538 1.062 12.2784-3.803-.6068.071 16.1521 7.545 22.5644 4.632 3.9849-21.623 6.5943-27.54 4.0152-10.246-4.4603 4.47-17.9422-1.527-24.7692-2.215-2.5184 4.409-6.9483 9.911-6.0279z" fill="url(#o)"/><path d="m324.587 66.1498c-7.474-6.4224-11.348-23.1712-7.545-22.5643 2.953.4652 5.158-13.2696-1.062-12.2784-3.176.5057-3.479 4.0456-4.157 5.5323 0 0-1.79.6372-6.402 2.5285-.718-.1214-1.456-.1517-2.185-.1011-5.178 5.765-8 11.3277-1.719 12.956 8.698 2.2554 10.478 11.884 10.62 18.6705 7.848-.6878 15.07-2.4982 12.45-4.7435z" fill="url(#p)"/><path d="m303.47 66.605s-8.597-1.9924-7.07-13.1279c-1.75 6.4426-6.331 13.6539.637 16.6881 1.244.5461 3.388.8495 5.957.9709z" fill="url(#q)"/><path d="m304.855 33.1785c3.257 7.1809 10.64 9.1228 6.159 14.8271-6.594 8.3845-8.698 8.4149-13.765 8.779-4.956.3641-11.156-9.5881-11.853-12.1469-1.386-5.1076-.84-7.8586-1.386-10.1646-.617-2.5892-1.8-2.7814-1.517-7.9193 0 0 4.541-.2124 9.022-3.105 2.68-1.7295 5.512-1.2137 8.414 1.0822 2.964 2.3364 2.6 3.5298 4.926 8.6576z" fill="url(#r)"/><path d="m299.92 24.5208c-2.903-2.2858-5.735-2.8117-8.415-1.0822-2.771 1.7902-5.563 2.5588-7.292 2.8724-1.659 9.9622 17.204 3.9242 15.555 8.1518-4.258 10.9232 1.82 11.8941.313 15.7475-1.021 2.6297-2.457 4.7637-3.964 6.4831.374.0809.748.1113 1.112.091 5.067-.3641 7.181-.3843 13.765-8.7789 4.481-5.7043-2.902-7.6462-6.159-14.8271-2.326-5.138-1.962-6.3213-4.925-8.6576z" fill="url(#s)"/><path d="m313.705 37.4463c-.283 1.0518-.557 3.3983.89 4.2883 3.277 2.0127 3.873-4.8041 3.216-6.4527s-3.014-1.8711-4.106 2.1644z" fill="url(#t)"/><path d="m233.044 65.9272 3.762 4.5615-1.709 15.5856-3.762-4.5513z" fill="#1f2434"/><path d="m257.429 75.384-39.829 26.832 4.642-40.4758 10.802 4.1872-1.709 15.5958 15.292-10.3264z" fill="#2d3d4f"/><path d="m269.111 79.9047-66.196 44.4513 7.788-67.0865 11.54 4.4704-4.642 40.4761 39.829-26.8323z" fill="#5cbe8a"/><path d="m269.111 79.9048 3.763 4.5614-66.196 44.4508-3.763-4.561z" fill="#2c805c"/><path d="m401.677 543.311c-.516 4.945-3.975 13.694-1.699 16.182 2.275 2.488 15.828 9.972 23.393 13.087 7.556 3.116 16.183 2.054 18.529-.343 4.177-4.289 7.535-7.586 1.002-9.457-9.477-2.711-17.983-9.366-18.863-18.579-.88-9.214-22.342-.89-22.342-.89z" fill="#fff"/><path d="m446.402 564.934s-.031.031-.041.041c-3.651 4.349-13.674 6.918-19.995 4.875-3.793-1.224-5.644-2.205-11.227-5.613-5.016-3.065-10.589-6.271-15.343-11.945-.647 3.125-.95 5.947.192 7.191 2.276 2.488 15.829 9.972 23.394 13.088 7.555 3.115 16.183 2.053 18.529-.344 2.872-2.943 5.36-5.432 4.501-7.293z" fill="url(#v)"/><path d="m404.104 545.05c-.081 2.033 17.032 7.282 17.325 3.085.324-4.764 1.922-7.636 1.922-7.636l-17.952-.89c-1.659 4.116-1.214 3.398-1.295 5.431z" fill="#77a9e5"/><path d="m436.965 356.171s-37.634-34.58-36.785-10.721c.85 23.859 21.938 95.386 20.633 107.644-.708 6.635-2.518 14.281-6.675 35.176-.304.334-1.386 13.371-4.117 16.951-1.972 2.579-1.466 4.794-.981 6.918.496 2.124-1.102 3.753-3.307 7.252-2.164 3.449-.182 8.87-.334 12.562-.182 4.389-.06 7.575-.02 7.656 1.922 4.137 20.076 6.797 21.978 2.893 2.194-4.501 6.493-16.85 11.803-37.129 8.769-33.528 15.656-53.564 14.483-64.902-.829-7.969-14.129-56.729-16.688-84.3z" fill="#ff6984"/><path d="m441.921 442.626c.738-7.08-13.118-71.931-14.089-94.536l-29.31 5.887c6.281 30.655 23.262 90.045 22.291 99.117-.708 6.635-2.518 14.281-6.675 35.176-.304.334-1.386 13.371-4.117 16.952-1.972 2.579-1.466 4.794-.981 6.917.496 2.124-1.102 3.753-3.307 7.252-2.164 3.449-.182 8.87-.334 12.562-.182 4.389-.06 7.575-.02 7.656 1.487 3.216 12.774 5.532 18.63 4.582 7.404-25.305 20.218-80.265 21.31-84.26 1.345-4.946-4.146-10.235-3.418-17.305z" fill="url(#w)"/><path d="m301.609 462.713c-4.4 1.294-13.067 1.426-14.392 4.238-1.325 2.811-4.521 21.674-4.521 29.209s5.664 16.749 8.526 17.902c5.128 2.063 9.113 3.752 8.415-2.468-1.022-9.032 4.693-24.021 12.238-28.016s-10.266-20.865-10.266-20.865z" fill="#fff"/><path d="m299.03 515.336s-.031-.01-.051-.02c-4.986-1.588-12.43-11.459-12.915-17.568-.294-3.662 1.476-10.256 2.427-16.213.849-5.36 1.628-11.237 4.784-17.275-2.893.546-5.401 1.285-6.069 2.691-1.325 2.811-4.521 21.674-4.521 29.209s5.664 16.749 8.527 17.902c3.519 1.416 6.513 2.66 7.808 1.274z" fill="url(#x)"/><path d="m298.261 464.442c-1.517.729 3.075 14.433 6.018 16.81 2.953 2.377 10.771-1.457 10.771-1.457l-10.276-16.556c-3.752.293-4.996.475-6.513 1.203z" fill="#77a9e5"/><path d="m371.699 331.837c-11.925 27.035 4.814 80.255-2.741 108.544-1.629 6.109-6.564-5.725-56.467 19.631-7.16 3.641-8.698 1.436-11.408 2.003-3.874.809 7.535 22.847 10.266 20.865 15.939-11.54 54.13-13.199 73.619-17.133 9.528-1.922 15.738.971 22.828-32.982 6.796-32.537 13.643-56.881 14.776-61.392 6.119-24.193-33.406-79.162-50.883-39.536z" fill="url(#y)"/><path d="m406.147 383.389c-1.133 14.969-4.754 44.967-8.577 55.617-4.673 13.027-2.357 10.114-12.167 21.391-5.158 5.937-19.389 9.962.101 6.028 9.527-1.922 15.737.971 22.827-32.982 6.797-32.537 6.807-31.465 7.394-36.077 1.193-9.264-8.152-32.951-9.578-13.977z" fill="#ff6984"/><path d="m420.215 307.362c-12.228 1.527-26.286 2.993-33.548 4.015 0 0-3.449-13.887-6.331-23.829-2.64-9.123 1.436-18.68-3.874-24.668-5.32-5.987-8.303-11.722-14.311-3.853-6.008 7.879 1.335 23.768 6.149 34.65 4.814 10.883 6.422 22.13 9.447 27.551 3.883 6.989 6.149 8.02 13.724 5.421 8.759-3.004 22.696-4.298 33.488-10.852 3.722-2.256.121-9.052-4.754-8.446z" fill="url(#A)"/><path d="m384.786 226.884-1.123 10.226 36.35 14.534.384-20.502-19.51-6.361s-11.398-.9-16.091 2.093z" fill="#29368b"/><path d="m439.128 207.213c10.913-9.882.607-17.983-8.081-25.528-3.439-2.994-17.922-11.368-24.324-1.719-4.632-.911-8.486 1.264-10.893 11.438-3.004 12.704 1.184 18.276 1.78 28.987l33.842-15.009 7.676 1.841z" fill="#ff6984"/><path d="m436.681 202.681c-7.606-4.025-9.264-2.639-13.239-9.183-4.359-7.181-4.561-10.751-9.366-13.715-3.813-2.356-5.583-.92-5.279.759 3.762 3.044 6.665 7.646 6.958 9.133 1.426 7.211-7.707 16.374-11.691 21.897l1.456 2.852 14.766-4.107 11.176-4.955 7.677 1.84c.222-.202.425-.394.627-.596-.526-1.204-1.558-3.126-3.075-3.935z" fill="#b7cff5"/><path d="m409.415 214.212c-4.288-2.559-5.967-3.449-5.967-3.449-.456-1.578-.223-5.128-3.298-6.099-6.017-1.901-5.866 12.026-2.872 11.995 3.853-.03-2.458 15.97-10.812 21.22-5.178 3.256 20.43 9.729 26.671 8.06 10.802-2.902-1.77-18.427 5.188-24.293 2.559-2.165-3.337-7.535-8.91-7.434z" fill="url(#B)"/><path d="m411.6 214.434c-.718-.151-1.446-.232-2.174-.222-4.288-2.559-5.967-3.449-5.967-3.449-.456-1.578-.223-5.128-3.298-6.099-6.017-1.901-5.866 12.026-2.872 11.995 3.854-.03-2.458 15.97-10.812 21.22-2.923 1.83 3.955 4.693 11.621 6.543 1.143-6.695 4.339-15.96 13.28-16.91 6.463-.688 4.501-6.615.222-13.078z" fill="url(#C)"/><path d="m407.301 241.459-.202 4.551c2.559.263 4.733.273 6.048-.081 7.353-1.972 3.884-9.78 3.105-16.425-.132 11.257-8.941 11.955-8.941 11.955z" fill="url(#D)"/><path d="m410.889 208.163c-4.288 6.625-11.883 7.454-8.293 13.765 5.279 9.285 7.363 9.619 12.329 10.731 4.855 1.093 12.46-7.838 13.532-10.265 2.135-4.845 1.993-7.657 2.883-9.862.991-2.478 2.195-2.488 2.68-7.615 0 0-4.46-.88-8.475-4.41-2.397-2.114-5.28-2.013-8.486-.182-3.277 1.871-3.095 3.105-6.159 7.838z" fill="url(#E)"/><path d="m432.342 204.431c-1.659-.576-4.319-1.739-6.797-3.924-2.397-2.114-5.28-2.013-8.486-.182-3.277 1.871-3.095 3.105-6.159 7.838-4.289 6.625-11.884 7.454-8.294 13.765 5.28 9.285 7.363 9.609 12.329 10.731.354.081.729.101 1.113.081-1.234-1.921-2.336-4.248-2.964-6.999-.92-4.035 5.239-4.096 2.65-15.535-1.001-4.43 16.769 4.339 16.608-5.765z" fill="url(#F)"/><path d="m398.239 208.396c-.89 1.537-1.315 8.374 2.235 6.867 1.568-.667 1.639-3.034 1.517-4.116-.485-4.157-2.852-4.288-3.742-2.751z" fill="url(#G)"/><path d="m393.132 241.853c-26.569-7.848-16.678 114.389-16.678 114.389 31.182 7.232 57.377-.95 57.377-.95l2.215-93.808-8.729-21.178s-7.626 9.396-34.195 1.547z" fill="#fff"/><path d="m419.378 241.52c-3.409 1.77-9.68 3.388-9.68 3.388s1.669 34.246.971 45.968c-.697 11.722 5.998 40.213 4.784 53.705-1.213 13.492 14.635 34.236 14.635 34.236s6.524-2.903 12.987-6.999c6.462-4.086-15.06-122.49-15.06-122.49s-6.028-9.164-8.627-7.808z" fill="#72abfe"/><path d="m443.65 332.727c-1.052-20.926-.213-51.318-2.225-71.688-.87-8.839-.729-15.676-9.032-18.377-8.769-2.862-11.995-11.51-11.995-11.51s.374 4.026-3.277 10.124c0 0 2.639 8.8 2.902 10.377 4.623 27.895-.131 61.21 3.257 95.982.86 8.87 14.888 42.257 14.888 42.257s20.279-1.325 16.203-13.675c-5.148-15.585-10.023-29.816-10.711-43.469z" fill="url(#I)"/><path d="m493.006 284.908c-5.421 2.741-22.372 10.013-26.215 11.318-2.863.971-2.428-1.264-2.822-4.056-.395-2.791-2.509-3.53-4.835-7.626-2.326-4.106-10.741-36.491-26.741-41.882-2.074-.698-16.577 11.399-8.617 26.944 7.322 14.311 15.838 28.845 15.838 28.845s4.177 3.934 6.615 5.451c2.437 1.517 2.64 2.124 2.69 5.573.051 3.439 4.299.769 6.099 6.807 1.021 3.439 4.197 2.791 12.915-.243 8.719-3.034 25.255-11.408 30.696-17.355 5.442-5.948-.202-16.507-5.633-13.766z" fill="url(#J)"/><path d="m493.007 284.908c-5.421 2.741-22.372 10.013-26.216 11.318-2.862.971-2.427-1.264-2.821-4.056-.395-2.791-2.509-3.53-4.835-7.626-1.74-3.064-12.622-38.332-23.121-39.829-.536 16.173 10.448 24.83 14.16 41.053 3.712 16.233 5.613 12.096 8.132 14.18 2.518 2.083 7.09 3.924 13.411-.111 5.138-3.277 20.521-11.257 26.104-14.14-1.396-1.203-3.115-1.658-4.824-.799z" fill="#3486fe" opacity=".5"/><path d="m510.301 279.194c.253-.465 3.753-1.285 5.674-1.052 3.904.475 1.841-2.711-.758-2.741-2.003-.02-4.582-.263-6.605 1.214-2.023 1.476-6.786 3.509-7.231 3.267-.435-.243-.728-1.7 2.073-3.743 2.802-2.053 1.608-4.51-2.892-1.213-4.501 3.297-6.119 9.952-9.295 12.278-3.176 2.316 5.734 8.162 5.734 8.162 12.673-3.671 7.647-6.271 14.595-8.02 6.817-1.72 7.343-3.257 7.697-5.634.495-3.297-5.583-3.105-9.002-2.528z" fill="url(#K)"/><path d="m404.072 241.499c-14.554-5.31-19.287-14.615-19.287-14.615s-6.514 8.132-8.779 10.367c-2.256 2.235-3.035 3.166-11.065 6.989-7.495 3.56-10.215 37.786-9.214 46.18 5.532 46.353 5.441 31.829-19.611 84.28-5.593 11.702 34.115 30.171 34.115 30.171 35.095-38.353 29.553-141.839 29.684-148.504.081-4.572 4.157-14.868 4.157-14.868z" fill="url(#L)"/><path d="m364.041 285.596c-1.749 23.758 3.146 39.485 4.37 47.698 1.224 8.212 10.943 17.628 5.239 15.545-5.705-2.073-15.626-7.859-15.626-7.859s-8.83 20.087-9.7 24.375l9.7-19.308s16.678 5.432 21.745 7.272c5.067 1.841 13.441-12.865 13.441-12.865v-21.866l-15.879-42.954-13.279 9.962z" fill="#a5bcd9"/><path d="m406.167 325.89c-1.011-3.792-6.493-2.073-7.039-4.339-.547-2.265-2.397-4.116-4.774-5.926-2.377-1.811-1.993-3.975-2.235-6.736-.243-2.761-8.87-58.459-19.065-62.738-10.195-4.288-12.107 16.496-14.645 24.669-3.834 12.308 13.067 54.221 17.831 60.289 4.763 6.069 41.71 22.959 49.305 26.782 7.596 3.823 7.738 4.389 11.409 5.532s11.763-6.038 5.795-11.56c-5.967-5.512-35.561-22.19-36.572-25.983z" fill="url(#M)"/><path d="m460.458 361.957c-4.42.212-3.429-2.711 1.092-5.087 4.521-2.377.758-4.582-3.398-2.397-4.157 2.184-5.705 1.153-8.759.748-3.055-.405-8.132-1.74-8.132-1.74-4.116 4.208-4.248 8.688-1.416 10.843 2.822 2.154 9.042 5.218 11.136 6.816 2.104 1.598 14.129 1.932 17.163.344 3.034-1.598 3.985-1.952 4.43-4.359.577-3.145-7.686-5.38-12.116-5.168z" fill="url(#N)"/><path d="m406.166 325.89c-1.012-3.792-6.494-2.073-7.04-4.339-.546-2.265-2.397-4.116-4.774-5.926-2.376-1.811-2.002-3.975-2.235-6.736-.141-1.649-3.267-22.12-7.939-39.283l4.126 47.111s2.741 5.017 6.908 9.295c4.157 4.278 9.821 2.973 22.15 13.644 9.729 8.414 18.984 12.157 25.184 12.035-6.382-5.684-35.379-22.058-36.38-25.811z" fill="#3486fe" opacity=".5"/><path d="m452.014 356.161s-3.055 6.837-2.225 5.664c.829-1.183 14.503-4.066 13.866-7.09-.647-3.034-4.187-.465-11.641 1.436z" fill="url(#O)"/><path d="m553.892 365.244-44.633-19.48c-2.124-.93-6.129-.92-8.931.03l-48.112 16.274c-1.224.415-2.185-.779-2.519-.253-.111.182 0 2.073 0 2.245-.02.516.405 1.002 1.295 1.396l44.633 19.48c2.124.93 6.129.92 8.931-.031l48.112-16.273c2.802-.951 3.348-2.468 1.214-3.398z" fill="url(#P)"/><path d="m553.892 363.008-44.633-19.479c-2.124-.931-6.129-.921-8.931.03l-48.112 16.274c-2.802.95-3.348 2.467-1.214 3.398l44.633 19.479c2.124.931 6.13.921 8.931-.03l48.112-16.273c2.802-.951 3.348-2.468 1.214-3.399z" fill="#3486fe"/><path d="m506.143 356.434-14.402-6.281c-.688-.303-1.972-.293-2.883 0l-15.525 5.25c-.9.303-1.082.799-.394 1.092l14.402 6.281c.688.303 1.972.293 2.883 0l15.525-5.249c.9-.304 1.082-.799.394-1.093z" fill="url(#Q)"/><path d="m600.062 307.028-66.894 24.324c-2.184.789-5.067 3.56-6.452 6.169l-23.647 44.947c-1.375 2.619-.728 4.096 1.457 3.297l66.894-24.324c2.184-.789 5.067-3.56 6.452-6.17l23.647-44.946c1.375-2.62.728-4.096-1.457-3.297z" fill="url(#R)"/><path d="m600.821 307.624-66.894 24.324c-2.184.789-5.067 3.561-6.452 6.17l-23.647 44.947c-1.375 2.619-.728 4.096 1.457 3.297l66.894-24.324c2.184-.789 5.067-3.561 6.452-6.17l23.647-44.947c1.375-2.619.728-4.096-1.457-3.297z" fill="url(#S)"/><path d="m459.176 107.681-13.32 39.849c-.274.819-1.336 1.022-1.892.354l-27.095-32.385c-.607-.728-.101-1.831.839-1.841l20.704-.091c.131 0 .263-.02.384-.071l18.943-7.241c.87-.334 1.74.516 1.447 1.406z" fill="url(#T)"/><path d="m444.459 102.694-14.26 5.644c-.233.091-.374.334-.344.587l1.942 15.585c.02.172.121.324.273.415.151.091.334.101.495.03l3.945-1.719c.364-.162.779.111.769.516l-.112 6.24c0 .415.435.698.809.506l2.407-1.244c.375-.192.82.081.81.505l-.203 9.801c-.01.617.83.789 1.062.222l.152-.374 7.596-26.357c.131-.445-.304-.839-.729-.667l-4.086 1.608c-.384.151-.789-.162-.748-.567l.991-10.134c.041-.415-.374-.718-.758-.566z" fill="url(#U)"/><path d="m530.51 146.174c6.605-3.247 6.867-9.709 4.43-18.387s-11.004-14.14-13.249-13.037c-2.246 1.102-6.22 12.733-3.783 21.411 2.438 8.678 5.998 13.26 12.602 10.003z" fill="url(#W)"/><path d="m534.738 148.217c1.993 7.09 7.727 6.494 15.809 2.509 8.081-3.975 14.149-14.504 13.471-16.921-.677-2.407-10.518-5.34-18.599-1.355-8.081 3.975-12.663 8.678-10.681 15.767z" fill="url(#X)"/><path d="m533.655 144.324c6.069 2.71 10.307-2.286 14.302-11.227s2.235-20.248.172-21.169c-2.064-.92-11.824 5.239-15.819 14.19s-4.713 15.505 1.345 18.216z" fill="url(#Y)"/><path d="m518.586 184.506c13.401 4.117 25.436 3.641 30.746-13.644 5.3-17.284-1.214-34.802-14.615-38.908s-28.612 6.736-33.912 24.021c-5.3 17.284 4.39 24.425 17.791 28.541z" fill="url(#Z)"/><path d="m543.316 164.591c.254-.828-1.237-2.02-3.33-2.662s-3.996-.492-4.25.336c-.254.827 1.237 2.019 3.33 2.661 2.093.643 3.996.492 4.25-.335z" fill="#eaadcc"/><path d="m517.958 155.409c.369-.827-.795-2.15-2.601-2.956s-3.568-.79-3.937.036c-.369.827.795 2.15 2.601 2.956s3.568.79 3.937-.036z" fill="#eaadcc"/><path d="m529.792 158.999c-1.285.506-2.579.485-3.874-.081-1.305-.566-2.134-1.426-2.488-2.579" stroke="#000" stroke-linecap="round" stroke-linejoin="round"/><path d="m519.062 146.761c.951.253 1.719.87 2.174 1.659.455.788.617 1.739.364 2.68-.252.94-.869 1.689-1.658 2.144-.789.445-1.76.597-2.711.344-.95-.253-1.719-.87-2.174-1.659s-.617-1.74-.364-2.68c.252-.941.869-1.689 1.658-2.144.789-.445 1.76-.597 2.711-.344z" fill="#000"/><path d="m518.375 149.633c.162-.617-.202-1.244-.83-1.416-.616-.172-1.254.193-1.426.81-.161.616.203 1.244.83 1.415.617.172 1.254-.192 1.426-.809z" fill="#fff"/><path d="m539.522 153.962c.951.253 1.719.87 2.175 1.659.455.789.617 1.739.364 2.68s-.87 1.689-1.659 2.144c-.789.445-1.76.597-2.71.344-.951-.253-1.72-.87-2.175-1.659s-.617-1.739-.364-2.68.87-1.689 1.659-2.144c.789-.445 1.759-.597 2.71-.344z" fill="#000"/><path clip-rule="evenodd" d="m519.192 146.285c2.175.587 3.469 2.802 2.893 4.946-.577 2.144-2.812 3.409-4.986 2.832-2.175-.587-3.47-2.802-2.893-4.946.576-2.144 2.812-3.408 4.986-2.832zm-1.841 6.817c1.639.445 3.328-.516 3.763-2.134s-.546-3.297-2.185-3.732c-1.638-.445-3.327.516-3.762 2.134s.536 3.297 2.184 3.732z" fill="#fff" fill-rule="evenodd"/><path clip-rule="evenodd" d="m539.653 153.487c2.175.586 3.469 2.801 2.893 4.945-.577 2.144-2.812 3.409-4.986 2.832-2.175-.586-3.469-2.801-2.893-4.946.577-2.144 2.812-3.408 4.986-2.831zm-1.83 6.816c1.638.445 3.327-.515 3.762-2.134.435-1.618-.536-3.297-2.185-3.732-1.638-.445-3.327.516-3.762 2.134-.435 1.619.536 3.297 2.185 3.732z" fill="#fff" fill-rule="evenodd"/><path d="m538.834 156.844c.162-.617-.202-1.244-.829-1.416-.617-.172-1.254.193-1.426.809-.162.617.202 1.245.829 1.416.617.172 1.254-.192 1.426-.809z" fill="#fff"/><path d="m508.028 160.364 8.111 15.677" stroke="#ecb732"/><path d="m517.818 164.916-9.902 5.522" stroke="#ecb732"/><path d="m544.276 171.49-15.515 8.425" stroke="#ecb732"/><path d="m533.615 169.76 5.098 10.124" stroke="#ecb732"/><path d="m539.118 140.703-10.074 5.471" stroke="#ffc73b"/><path d="m535.142 148.045-5.269-10.174" stroke="#ffc73b"/><path d="m176.609 197.005c-97.1147 0-175.842124 32.769-175.842124 73.195v126.921c0-18.448 16.404924-35.298 43.459824-48.173 12.7336-6.059 27.8338-11.237 44.6938-15.283 25.8105-6.189 55.7485-9.74 87.6785-9.74s61.867 3.54 87.678 9.74c16.547 3.965 31.384 9.032 43.966 14.939l.728.344v-126.921c-32.233-15.333-79.577-25.022-132.372-25.022z" fill="url(#ab)" opacity=".6"/><path d="m.74707 270.827v126.921c0 18.448 16.40493 35.298 43.45983 48.173v-126.921c-27.0549-12.865-43.45983-29.725-43.45983-48.173z" fill="url(#ac)" opacity=".67"/><path d="m178.107 220.388c-2.589 0-5.158.02-7.717.071v11.631c2.559-.05 5.128-.071 7.717-.071 5.472 0 10.893.112 16.243.324v-11.631c-5.35-.213-10.771-.324-16.243-.324z" fill="#3486fe" opacity=".2"/><path d="m165.292 240.505v3.904c4.227-.131 8.506-.202 12.814-.202 1.841 0 3.682.01 5.512.04v-3.904c-1.83-.02-3.671-.04-5.512-.04-4.308 0-8.576.071-12.814.202z" fill="#3486fe"/><path d="m72.0199 322.146c2.8016 1.385 5.5526 1.8 9.1936 1.375-3.6208.415-6.3718 0-9.1936-1.375z" fill="#3486fe"/><path d="m81.7394 323.44s.0512 0 .0717-.01c-.0205 0-.0512 0-.0717.01z" fill="#3486fe"/><path d="m79.9799 321.478c2.124-.112 4.167-.577 6.1089-1.295-2.134-.061-4.0254 1.092-6.1089 1.295z" fill="#3486fe"/><path d="m86.0991 322.297c-.708.253-1.2845.435-1.9722.627.6979-.192 1.2744-.374 1.9722-.627z" fill="#3486fe"/><path d="m95.1203 279.697c-3.9444-1.497-7.3933-1.022-9.4566-.749.263.445.4552 1.042-.0404 2.043 18.4077-1.77 23.1007 17.346 12.1368 30.686-2.66 3.247-6.7966 6.676-11.6716 8.496h.1416c1.0721.061.9305 1.173.4552 1.709-.1821.213-.3844.304-.5361.375 22.8278-9.386 25.4878-36.32 8.961-42.58z" fill="#3486fe"/><path d="m79.9779 321.478c-.1613 0-.3125.03-.4637.03.1613 0 .3125-.01.4637-.03z" fill="#3486fe"/><path d="m85.8356 320.295c-3.2263 1.173-8.0406 2.093-12.6425-.162-.1112 1.052-.708 1.679-1.1732 2.013 6.1594 3.003 15.7475 1.001 14.9991-1.437-.0708-.232-.3237-.728-1.1834-.424z" fill="#ff6984"/><path d="m84.1364 278.463c-21.8159 7.211-25.7907 36.734-13.7348 43.844 1.3047.769 3.1859-1.143 2.751-2.802-.1315-.485-.1922-.526-1.1934-1.234-.9609-.677-5.6841-4.51-4.9458-13.765.5158-6.422 3.8636-13.138 8.7486-17.548 3.4084-3.074 6.5235-4.096 8.3845-4.713.172-.06.617-.202 1.0114-.596 1.5879-1.608.617-3.641-1.0114-3.176z" fill="#fff"/><path d="m31.9282 246.432s-.0408.031-.0613.051c.0205-.02.0409-.03.0613-.051z" fill="#3486fe"/><path d="m40.6372 298.408c-5.2088 6.25-6.1392 7.383-9.1937 7.332-4.1669-.07-4.9457-5.32-5.0873-7.575-.2428-3.924.708-9.568 3.3073-14.23-.5462.96-1.0215 1.962-1.4261 3.003-.6473 1.689-.9002.536-.9002.526 0-.07 0-.172.0304-.283-3.1758 8.86-2.4173 19.551 3.3174 20.046 2.5892.223 6.7359-1.831 10.6096-8.283-.2731.02-.5057-.01-.6676-.536z" fill="#3486fe"/><path d="m33.2438 277.988c-3.8837 3.307-6.7561 9.79-5.6436 9.871.2933.02.445-.394.6574-.92.708-1.841 2.306-5.28 5.0975-7.616-.2832-.374-.2124-.931-.1011-1.325z" fill="#fff"/><path d="m34.5488 276.501c-2.2454 1.355-1.2744 2.933-.9103 2.973.182.021.3439-.091.4754-.172 2.4779-1.668 4.3894-1.284 5.3098-.9 1.7497.718 3.0949 2.539 3.7118 4.986.6777 2.711.8395 7.283-2.2554 13.664-.5664 1.174-.1315 2.013.4349 1.892 2.2656-.465 6.9585-15.141 1.5475-21.381-1.0216-1.173-3.8636-3.621-8.3036-1.062z" fill="#ff6984"/><path d="m173.382 263.15v41.589c3.266-.081 6.554-.121 9.861-.121 42.003 0 80.619 6.371 111.072 17.032v-41.589c-30.453-10.66-69.069-17.032-111.072-17.032-3.307 0-6.605.04-9.861.121zm112.255 25.457c.071-.829.769-.708 1.112-.334.274.304.304.638.314.779v25.063c-.071.789-.688.606-.718.596-.435-.192-.678-.536-.718-1.051v-25.053zm-11.763 2.893c.081-.911.941-.718 1.285-.243.182.253.202.455.222.647v18.752c-.07.728-.586.657-.748.617-.465-.172-.718-.506-.759-1.022v-18.761zm-12.379 9.052c.04-.759.829-.86 1.305-.344.263.293.283.597.283.698v6.705c-.031.597-.486.708-.789.648-.455-.132-.769-.526-.799-1.002zm-12.936-18.873c.091-.92 1.032-.779 1.416-.334.202.243.223.435.243.627v23c-.071.728-.648.697-.82.677-.515-.141-.788-.445-.839-.971v-23.009zm-13.452-5.512c.102-.92 1.072-.819 1.467-.374.212.232.233.435.253.617v26.387c-.081.769-.728.718-.86.698-.526-.132-.809-.435-.86-.941zm-13.916-8.82c.182-1.092 1.385-.738 1.668-.222.061.111.091.283.112.405v33.558c-.112.647-.536.758-.87.728-.779-.142-.86-.657-.9-.91v-33.559zm-14.342 1.841c.101-.95 1.244-.94 1.669-.354.121.172.141.334.151.466v30.554c-.091.789-.829.769-.91.758-.556-.091-.86-.374-.91-.879v-30.555z" fill="#3486fe" opacity=".2"/><path d="m286.365 288.011c-.435-.081-.678.121-.718.596v25.053c.081.991.96 1.325 1.314.88.091-.122.112-.314.122-.425v-25.063c-.071-.829-.647-1.031-.718-1.052z" fill="#ff6984"/><path d="m274.623 290.883c-.455-.071-.698.131-.738.627v18.761c.091 1.042 1.072 1.244 1.385.83.102-.132.112-.294.132-.425v-18.751c-.071-.85-.698-1.012-.769-1.032z" fill="#ff6984"/><path d="m262.293 299.915c-.455-.071-.769.182-.799.647v6.705c.04.86.971 1.285 1.406.84.162-.172.172-.384.182-.486v-6.705c-.03-.617-.486-.941-.789-1.001z" fill="#ff6984"/><path d="m249.369 281.011c-.496-.04-.769.183-.819.678v23.01c.101 1.041 1.173 1.173 1.517.728.111-.142.121-.304.141-.435v-22.999c-.081-.84-.758-.961-.839-.971z" fill="#ff6984"/><path d="m235.946 275.469c-.516-.02-.799.212-.85.708v26.387c.111 1.032 1.214 1.133 1.568.678.111-.152.131-.313.141-.435v-26.387c-.08-.84-.788-.941-.869-.951z" fill="#ff6984"/><path d="m222.051 266.619c-.536 0-.819.243-.88.738v33.559c.182 1.163 1.376 1.031 1.669.556.061-.101.091-.263.101-.374v-33.558c-.121-.779-.667-.901-.9-.921z" fill="#ff6984"/><path d="m207.739 268.43c-.819.03-.88.586-.9.768v30.555c.111 1.011 1.345 1.092 1.709.505.061-.101.101-.263.112-.384v-30.554c-.092-.84-.891-.88-.921-.88z" fill="#ff6984"/><g fill="#3486fe"><path d="m84.1376 291.641c-10.0229 3.277-12.7942 16.446-6.2808 20.269 7.272 4.258 18.2356-5.482 16.2937-14.474-.9912-4.581-5.2896-7.069-10.0129-5.785z"/><path d="m123.379 228.368c12.967-1.831 26.59-3.034 40.669-3.509v-4.228c-14.079.485-27.702 1.679-40.669 3.509z" opacity=".2"/><path d="m123.379 236.024c12.966-1.83 26.59-3.034 40.669-3.509v-4.228c-14.079.486-27.703 1.679-40.669 3.51z" opacity=".2"/><path d="m123.379 243.671c6.969-.981 14.13-1.791 21.442-2.397v-4.228c-7.312.607-14.473 1.406-21.442 2.397z" opacity=".2"/><path d="m5.59097 313.953v4.228c3.42865 5.825 8.35413 11.388 14.58443 16.607v-4.228c-6.2303-5.219-11.15578-10.781-14.58443-16.607z"/><path d="m5.59097 321.599v4.218c3.42865 5.825 8.35413 11.388 14.58443 16.607v-4.218c-6.2303-5.218-11.15578-10.781-14.58443-16.607z"/><path d="m5.59097 329.255v4.218c3.42865 5.826 8.35413 11.388 14.58443 16.607v-4.217c-6.2303-5.219-11.15578-10.782-14.58443-16.608z"/><path d="m5.59097 345.61v4.228c5.70433 8.404 5.86613 8.556 14.58443 16.607v-4.228c-6.2303-5.219-11.15578-10.781-14.58443-16.607z"/><path d="m5.59097 353.256v4.228c3.42865 5.825 8.35413 11.388 14.58443 16.607v-4.228c-6.2303-5.219-11.15578-10.781-14.58443-16.607z"/><path d="m8.56491 365.403v4.227c3.10499 4.208 6.99889 8.254 11.61089 12.107v-4.228c-4.612-3.853-8.5059-7.909-11.61089-12.106z"/><path d="m1.03011 373.373v4.228c2.47793 9.831 9.12279 19.115 19.13569 27.5v-4.228c-10.0129-8.384-16.65776-17.669-19.13569-27.5z"/><path d="m1.03011 381.029v4.228c2.47793 9.831 9.12279 19.115 19.13569 27.5v-4.228c-10.0129-8.384-16.65776-17.669-19.13569-27.5z"/><path d="m8.56491 404.059v4.227c3.10499 4.208 6.99889 8.253 11.61089 12.107v-4.228c-4.612-3.853-8.5059-7.909-11.61089-12.106z"/></g><path d="m73.7193 337.205c-1.2946.465-2.1038 2.346-2.0633 3.358.0506 1.021-4.7839-3.247-8.071-6.21-3.287-2.953-10.2859-3.884-11.1355-3.378-.8496.495-.6979 2.913 4.4805 3.833 0 0-3.3174.941-5.2795 1.871-1.9621.931-1.9014 8.071 1.507 8.556 3.4084.486 7.4034 3.419 10.1342 5.219 2.7308 1.801 8.1924 4.501 8.1924 4.501l6.9989-6.888c-2.9129-3.094-3.459-11.327-4.7637-10.872z" fill="url(#ad)"/><path d="m159.295 326.747s1.021-.101 4.42-3.833c1.83-2.003 1.031-11.227 1.77-15.687.738-4.46 9.78-8.273 11.722-4.754 1.942 3.52 7.383 16.031 10.761 16.608 3.378.566 5.391 1.153 6.685 10.741 1.093 8.141-8.516 11.954-13.542 6.402-5.027-5.553-14.524-9.345-19.46-9.902l-2.356.435z" fill="url(#ae)"/><path d="m194.664 329.811c-.091-.677-.192-1.314-.283-1.901-3.874-1.102-8.567-2.69-11.247-4.511-6.595-4.49-8.597-16.769-9.174-22.291-3.368.202-7.939 3.004-8.455 6.119 0 .05-.02.111-.03.172l1.75 2.002c2.771 4.41 3.216 13.836.252 18.388 4.724 1.679 10.226 4.642 13.644 8.435 5.027 5.552 14.645 1.739 13.543-6.402z" fill="url(#af)"/><path d="m176.871 320.102c-.192-.01-.373-.02-.545-.03.232.02.424.03.545.03z" fill="#fff"/><path d="m174.504 319.95c-.564-.04-.423-.03 0 0z" fill="#fff"/><path d="m175.244 320.001c-.242-.02-.434-.03-.595-.041.171.011.383.021.595.041z" fill="#fff"/><path d="m176.337 320.072c-.323-.02-.718-.051-1.082-.071.293.02.647.04 1.082.071z" fill="#fff"/><path d="m176.871 320.102c-.192-.01-.373-.02-.545-.03.232.02.424.03.545.03z" fill="#fff"/><path d="m176.337 320.072c-.323-.02-.718-.051-1.082-.071.293.02.647.04 1.082.071z" fill="#fff"/><path d="m175.244 320.001c-.242-.02-.434-.03-.595-.041.171.011.383.021.595.041z" fill="#fff"/><path d="m174.504 319.95c-.564-.04-.423-.03 0 0z" fill="#fff"/><path d="m153.247 290.387c-6.928-7.15-6.18-11.489-3.196-15.828 3.398-4.956 16.253-15.697 30.777-9.8 14.523 5.896 11.863 7.019 19.934 10.933 8.071 3.924 22.524 4.824 24.668 12.329 8.992 31.444 12.552 14.159 26.145 27.217 9.861 9.476 10.883 27.621.374 27.57-17.922-.091-12.511 12.977-23.302 18.984-8.86 4.926-16.638-1.608-30.737-23.798-5.229-8.223-18.599-7.939-22.433-12.885-5.198-6.706-5.795-8.476-7.929-16.547-1.193-4.49-12.501-16.314-14.291-18.164z" fill="#ed7286"/><path d="m245.589 334.353c-21.847-.829-15.819-19.672-34.55-21.168-29.432-2.347-16.01-16.871-42.286-27.136-8.355-3.267-5.725-8.931-13.523-8.213-6.695.607-5.482 7.909-2.812 7.414l3.247 7.686c.111.112.212.233.324.354 1.527.557 11.216 4.359 15.07 13.098 2.002 4.551 6.139 17.184 18.114 20.521 6.564 1.831 10.862 9.659 13.805 18.772 11.014 15.97 17.922 20.41 25.66 16.112 10.801-6.008 5.38-19.065 23.302-18.984 4.471.02 6.847-3.247 7.353-7.748-3.145-.374-7.767-.485-13.704-.708z" fill="url(#ag)"/><path d="m225.42 288.021c-2.144-7.495-16.597-8.405-24.668-12.329-8.071-3.925-5.411-5.047-19.935-10.934-14.523-5.886-27.378 4.855-30.777 9.801-2.983 4.349-3.732 8.678 3.196 15.828-8.202-12.025-2.852-15.818.243-17.547 27.652-15.424 41.154 19.793 45.766 17.608 16.455-7.818 23.788 7.525 26.155-2.427z" fill="#fff" opacity=".5"/><path d="m118.737 281.517c-2.235-.809-6.584-1.102-8.101-2.619s-2.073-3.945-3.732-5.604c-1.659-1.658-4.693-1.284-1.386 2.023 3.307 3.308 2.953 12.987.465 12.086-2.488-.91-3.084-1.122-3.974-.232s7.808 4.703 9.871 11.732l9.113-1.466s-2.246-4.552-2.246-6.999c0-2.448 2.236-8.122 0-8.941z" fill="url(#ah)"/><path d="m122.652 300.896c-2.994-8.618-7.97-5.947-10.256-3.803-2.285 2.154 3.389 17.032 5.138 27.651 1.75 10.62 5.189 18.691 8.193 19.794 3.003 1.102 14.877 2.467 14.877 2.467l11.156-14.766s-13.431 1.365-15.596-1.922c-2.72-4.126-13.512-29.421-13.512-29.421z" fill="#91beff"/><path d="m136.164 330.317c-2.721-4.126-13.512-29.421-13.512-29.421-2.62-7.525-6.736-6.443-9.265-4.622 1.902 4.207 4.147 10.356 7.495 19.702 6.432 17.952 10.862 21.987 13.229 22.847 1.122.415 6.169 1.264 11.135 2.053l6.524-8.637s-13.432 1.365-15.596-1.922z" fill="#fff"/><path d="m212.788 601.787c-.02-.05-.04-.101-.071-.142-.081-.546-.232-1.112-.485-1.699-1.79-4.146-7.879-14.119-7.879-14.119l-12.38 1.78c2.155 8.769-4.025 14.686-7.636 17.113-3.61 2.417-8.475 2.084-11.327 6.807-2.852 4.713 9.972 5.573 15.201 4.288 4.926-1.213 9.153-6.665 15.272-7.717.526 1.204 1.234 2.873 1.659 3.995.728 1.922 7.626-.384 7.585-1.739-.05-1.801.607-6.716.051-8.547z" fill="#fff"/><path d="m188.221 615.805c4.926-1.213 9.153-6.665 15.272-7.717.526 1.204 1.234 2.873 1.659 3.995.728 1.922 7.626-.384 7.586-1.739-.051-1.801.606-6.716.05-8.547-.02-.05-.04-.101-.071-.141-.081-.546-.232-1.113-.485-1.699-1.79-4.147-7.879-14.12-7.879-14.12l-5.29.759-2.144 2.387c0 13.583-8.142 18.589-12.066 20.015-2.215.81-6.675.708-10.164.466-.607.556-1.174 1.234-1.679 2.063-2.852 4.713 9.972 5.573 15.201 4.288z" fill="#91beff"/><path d="m166.183 452.96c-9.72 38.676-6.817 40.911-3.833 49.791 3.55 10.549 9.709 23.515 10.134 25.234.425 1.72 17.73 49.488 19.5 59.622.89 5.108 12.683.981 12.379-1.78-.9-8.222-2.842-45.705-4.834-56.375-1.993-10.67-13.937-27.136-16.243-33.073-2.306-5.927 18.559-40.891 21.816-47.424 8.283-16.618-6.069-23.323-13.604-39.748-7.535-16.426-20.096 23.019-25.305 43.743z" fill="url(#ai)"/><path d="m197 589.964c3.51-.405 7.535-2.509 7.353-4.137-.9-8.223-2.842-45.705-4.834-56.375-1.993-10.681-13.937-27.136-16.243-33.073-1.497-3.844 6.736-19.864 13.603-32.446-9.507 7.141-22.18 16.425-27.348 25.073-1.831 3.064-1.376 6.978 1.112 9.547 12.491 12.916 20.087 29.756 21.917 39.576 1.74 9.295 3.439 38.909 4.43 51.845z" fill="url(#aj)"/><path d="m206.063 541.154c7.545 3.641 12.461 17.517 11.065 26.448-.546 3.479-4.936 14.2-.05 13.421 6.978-1.112 13.38-15.929 13.299-24.445-.05-5.391-.131-3.935 3.682-7.646 4.086-3.975 3.975-7.191-2.953-9.396-6.615-2.104-18.58-8.466-18.58-8.466l-7.423 2.822.96 7.252z" fill="#91beff"/><path d="m233.473 549.508-3.408-2.276c-1.75 2.762-2.539 5.472-3.156 6.767-1.992 4.146-4.986 16.132-9.517 22.453-1.365 1.901-1.588 3.398-1.133 4.581.243.041.516.041.83 0 6.978-1.112 13.38-15.929 13.299-24.445-.05-5.098-.121-4.076 3.085-7.08z" fill="#3486fe"/><path d="m235.739 542.236c-1.548-1.143-9.002 7.03-5.796 9.811 1.133.981 3.581 1.709 5.31 2.812 1.74 1.102 6.422-3.662 5.583-4.724-1.123-1.416-3.55-6.756-5.097-7.899z" fill="#91beff"/><path d="m235.253 554.869c1.537 1.213 5.856-3.085 5.674-4.44-.334-2.529-6.594 3.721-5.674 4.44z" fill="#3486fe"/><path d="m212.525 418.208c16.911 24.85-64.577 83.805-57.164 85.504 7.414 1.699 12.208-.425 30.544 9.871 18.337 10.296 22.15 15.029 26.62 17.497-5.552 2.144-6.462 10.074-6.462 10.074-3.287-1.902-41.832-13.27-54.849-17.305-13.016-4.036-20.784-6.483-24.89-11.641-8.435-10.62 33.892-79.962 33.892-79.962l52.309-14.028z" fill="url(#ak)"/><path d="m206.062 541.154s.91-7.93 6.463-10.074c-4.471-2.478-8.284-7.211-26.62-17.497-18.337-10.296-23.131-8.172-30.545-9.871-7.413-1.699 74.075-60.644 57.165-85.504l-17.528 4.703c.627 30.079-21.947 49.66-25.255 53.422-3.883 4.4-4.207 3.732-8.647 5.158s-11.945 1.538-13.158 2.873c-1.224 1.335-9.275 21.462-8.253 23.464 1.739 3.409 2.366 2.943 11.368 11.955 1.537 1.537 3.6 3.54 6.048 5.876 16.132 4.895 46.069 13.836 48.952 15.505z" fill="url(#al)"/><path d="m165.878 295.576c.991 2.367 2.296 5.795.334 8.374 3.074 3.672 3.297 9.184 2.912 9.346-5.552 2.255-6.958 2.619-9.021 2.68-4.4.131-6.777-13.361-7.09-15.879-.496-3.995 1.294-4.541 1.739-8.476.253-2.225-1.598-6.382-1.598-6.382 3.227-1.547 3.783-1.143 7.343 7.899.86 2.185 2.337-4.794 5.371 2.428z" fill="url(#am)"/><path d="m162.056 297.932c.081 1.042.475 3.277 1.618 3.793 2.589 1.173 1.295-5.3.475-6.685-.829-1.386-2.386-1.093-2.093 2.892z" fill="url(#an)"/><path d="m165.879 295.576c-3.034-7.221-4.511-.243-5.371-2.427-3.56-9.042-4.116-9.447-7.342-7.899 0 0 .556 1.264 1.021 2.771 1.962 3.874 4.956 4.602 3.621 5.957-4.895 4.966-1.679 15.019 3.095 21.958 1.709-.152 3.408-.678 8.212-2.64.385-.152.162-5.674-2.912-9.346 1.962-2.579.657-6.007-.334-8.374z" fill="url(#ao)"/><path d="m78.6848 346.156c4.2782 3.156 25.0322 11.469 33.7402 19.793 2.134 2.043 10.802-8.253 16.172-13.755 5.371-5.502 13.594-22.251 23.161-24.658 5.887-1.477 8.051-1.618 12.724-2.589 6.159-1.274 12.723 1.163 19.53.192 1.851-.263 1.669-6.534 3.145-6.362 6.949.799 14.281 5.341 17.74 11.247 3.459 5.907 8.385 16.698 6.777 33.215-1.598 16.455-8.931 25.295.293 41.042 9.861 16.82 5.189 36.148 1.972 60.249-1.78 13.351-2.245 31.647-2.245 31.647-8.607 8.607-29.351-17.548-51.157-3.894-24.991 15.657-50.671-11.307-53.27-16.192-21.2597-39.971 20.076-24.203 44.259-48.881 2.65-2.711 13.613-16.739 15.565-20.421 6.21-11.671-.627-23.545-5.997-27.51-6.777-5.006-8.152-10.164-7.818-13.633.788-8.092 1.456-8.688 1.456-8.688-2.023 2.983-17.922 12.177-23.899 16.92-5.978 4.744-10.509 7.596-12.026 8.8-1.517 1.203-3.024 3.873-11.904-2.62-4.814-3.52-27.7328-18.468-33.6899-23.232-5.1076-4.086-.0506-14.726 5.4514-10.67z" fill="#91beff"/><path d="m211.714 496.167s.466-18.296 2.246-31.647c3.216-24.101 7.889-43.429-1.972-60.249-9.235-15.737-1.892-24.577-.294-41.042 1.426-14.716-2.326-24.881-5.603-31.101-6.351-4.46-13.401-8.273-20.349-10.367-.374 1.588-.789 3.227-1.72 3.358-6.007.86-11.823-.941-17.345-.496-1.285 1.255-5.33 4.461-15.141 7.09-6.473 1.74-17.79 18.539-19.773 20.754-1.972 2.225-13.441 22.18-20.855 22.757-5.957.465-28.4302-16.789-39.7984-23.252-.0202 1.82.5866 3.61 2.1037 4.834 5.9572 4.774 28.8857 19.712 33.6897 23.232 8.88 6.493 10.387 3.823 11.904 2.62 1.517-1.204 6.048-4.056 12.026-8.8 5.714-4.541 20.511-13.148 23.545-16.496.111-.141.233-.283.344-.424 2.994-3.702-3.206 11.692 8.142 17.244 19.813 9.689 20.936 16.597 20.369 23.92-1.092 14.169 5.776 28.046-28.116 41.922-12.451 5.098-31.849 26.6-43.116 41.731 9.021 8.951 28.976 22.746 48.516 10.508 20.147-15.333 31.576-4.157 31.576-4.157 0 1.689.132 3.297.385 4.814 8.334 3.591 15.12 7.303 19.186 3.227z" fill="#fff"/><path d="m169.267 393.854-.495 8.354c9.426 18.154 41.214-1.71 41.214-1.71-.91-1.85-2.174-6.644-2.174-6.644-25.103 15.373-38.545 5.947-38.545 0z" fill="#3486fe"/><path d="m169.267 393.854-.495 8.354c3.044 5.866 8.414 7.757 14.301 7.646v-7.646c-9.083-.081-13.806-4.825-13.806-8.354z" fill="#2848bd"/><path d="m65.5374 225.718v40.911c12.5616-5.006 27.237-9.011 43.3686-11.722v-40.911c-16.1316 2.711-30.807 6.716-43.3686 11.722z" fill="url(#ap)" opacity=".67"/><path d="m103.363 243.023c.182.375.283.83.283 1.325 0 .496-.091 1.002-.283 1.487-.182.476-.455.91-.769 1.244-.323.344-.687.577-1.051.678l-11.6517 3.358 1.9216-4.956 7.6462-2.205-5.7346-11.57-1.9116 4.945-3.5702 9.244c-1.4766 3.733-3.6107 6.039-6.5033 6.868l-7.3226 2.104c-.3641.101-.7383.081-1.0518-.071-.3236-.152-.5866-.435-.7687-.799-.182-.374-.2832-.83-.2832-1.325 0-.496.0911-1.001.2832-1.487l9.7398-25.244c.1821-.476.4551-.911.7687-1.244.3135-.334.6776-.577 1.0518-.688.3743-.111.7384-.081 1.0519.081.3236.151.5866.435.7687.799l3.9141 7.899 2.0026-5.189c.182-.475.4551-.91.7686-1.244.3237-.344.6878-.576 1.0519-.688.3641-.111.7383-.08 1.0518.081.3237.152.5866.435.7687.799l7.8281 15.778zm-17.9421 2.044 2.5588-6.625-3.8231-7.717-7.6461 19.833 5.1075-1.466c1.7194-.496 2.8319-1.598 3.813-4.015" fill="#00dc82"/><path d="m246.437 197.187 6.149 13.502 6.22 13.512-7.221 10.873-18.65-40.466z" fill="#3ab982"/><path d="m273.25 202.304-14.442 21.897-6.2-13.543 7.201-10.923z" fill="#34495f"/><path d="m259.807 199.736-7.201 10.923-6.17-13.472 2.761.526z" fill="#f78200"/><path d="m259.101 182.582 4.905 10.721-4.197 6.432-10.61-2.022z" fill="#fc0"/><path d="m254.183 171.942 4.916 10.64-9.902 15.131-2.761-.526-3.671-7.94z" fill="#ffe183"/></svg>