<svg fill="none" height="610" viewBox="0 0 1440 610" width="1440" xmlns="http://www.w3.org/2000/svg" xmlns:xlink="http://www.w3.org/1999/xlink"><linearGradient id="a" gradientUnits="userSpaceOnUse" x1="743" x2="743" y1="-.000366" y2="610"><stop offset="0" stop-color="#0bd88f"/><stop offset="1" stop-color="#0bd88f" stop-opacity="0"/></linearGradient><linearGradient id="b" gradientUnits="userSpaceOnUse" x1="742.999" x2="742.999" y1="-.000366" y2="492.385"><stop offset="0" stop-color="#fff"/><stop offset="1" stop-color="#fff" stop-opacity="0"/></linearGradient><path d="m.0000422 103c109.8119578-53.883 272.7849578-112.89947 466.1989578-101.59513 151.703 8.86753 229.834 55.56113 365.429 88.03833 147.44 35.3188 317.622 53.3468 608.372-29.4436v550.0004h-1440z" fill="url(#a)" fill-opacity=".1"/><path d="m.5 609.5.000042-506.189c109.765958-53.8243 272.537958-112.69484 465.668958-101.40698 75.801 4.43075 133.219 18.31058 188.64 35.14478 16.905 5.1348 33.629 10.5466 50.636 16.0496 38.738 12.535 78.94 25.5435 126.066 36.8311 147.412 35.3115 317.539 53.3405 607.989-29.2677v548.8382z" stroke="url(#b)" stroke-opacity=".6"/></svg>