<svg fill="none" height="919" viewBox="0 0 1440 919" width="1440" xmlns="http://www.w3.org/2000/svg" xmlns:xlink="http://www.w3.org/1999/xlink"><linearGradient id="a" gradientUnits="userSpaceOnUse" x1="741" x2="741" y1="20.6371" y2="806.329"><stop offset="0" stop-color="#0bd88f"/><stop offset="1" stop-color="#4bdfff" stop-opacity="0"/></linearGradient><linearGradient id="b" gradientUnits="userSpaceOnUse" x1="741" x2="741" y1="20.6371" y2="497.034"><stop offset="0" stop-color="#fff"/><stop offset="1" stop-color="#fff" stop-opacity="0"/></linearGradient><path d="m.00003839 59.6964c164.86796161 109.5656 282.06896161 135.9956 360.49996161 122.3036 108-18.854 116.5-109.5001 229-109.5001 78 0 139.491 102.6181 265.098 101.3601 141.6-1.415 168.462-127.9042 338.402-166.78265 116.46-26.63925 247 38.59785 247 38.59785v873.3248h-1440z" fill="url(#a)" fill-opacity=".3"/><path d="m1439.5 45.986v872.514h-1439l.000038-857.8713c164.502962 109.1613 281.592962 135.5663 360.085962 121.8633 50.485-8.813 79.302-33.285 107.018-56.822 2.014-1.71 4.021-3.415 6.031-5.108 29.657-24.9929 59.793-47.5621 115.865-47.5621 19.388 0 37.775 6.3763 56.436 15.9592 14.097 7.239 28.319 16.2899 43.236 25.7829 4.84 3.08 9.753 6.207 14.76 9.334 40.842 25.509 87.719 50.915 150.671 50.284 70.984-.709 113.216-32.788 158.877-69.453 1.6-1.277 3.19-2.561 4.79-3.849 44.34-35.6612 92.95-74.7588 174.84-93.49325 58.11-13.29302 119.77-3.666 166.93 9.30395 23.57 6.4834 43.51 13.7987 57.56 19.4928 7.02 2.847 12.56 5.2884 16.36 7.0175 1.89.8646 3.35 1.551 4.33 2.0211.49.235.86.4159 1.11.5379z" stroke="url(#b)" stroke-opacity=".6"/></svg>