<svg fill="none" height="25" viewBox="0 0 26 25" width="26" xmlns="http://www.w3.org/2000/svg"><path d="m23.9474 20.2647c.5271.0003 1.0339.2098 1.4154.5851.3815.3752.6085.8876.6338 1.4308s-.1529 1.0756-.4977 1.487c-.3448.4113-.8298.67-1.3545.7225l-.197.0099h-21.89477c-.52714-.0003-1.03397-.2098-1.415475-.585-.381505-.3753-.6084346-.8877-.63376715-1.4309s.15287415-1.0756.49769415-1.487c.34482-.4113.829818-.67 1.354498-.7225l.19705-.0099zm0-9.8823c.5444 0 1.0665.2231 1.4514.6202s.6012.9358.6012 1.4974-.2163 1.1003-.6012 1.4974-.907.6202-1.4514.6202h-21.89477c-.54439 0-1.066485-.2231-1.451428-.6202s-.601202-.9358-.601202-1.4974.216259-1.1003.601202-1.4974.907038-.6202 1.451428-.6202zm0-9.8824c.5444 0 1.0665.223109 1.4514.62024.3849.39714.6012.93577.6012 1.49741 0 .56163-.2163 1.10026-.6012 1.4974s-.907.62024-1.4514.62024h-21.89477c-.54439 0-1.066485-.2231-1.451428-.62024s-.601202-.93577-.601202-1.4974c0-.56164.216259-1.10027.601202-1.49741.384943-.397131.907038-.62024 1.451428-.62024z" fill="#fff"/></svg>