<svg fill="none" height="57" viewBox="0 0 170 57" width="170" xmlns="http://www.w3.org/2000/svg" xmlns:xlink="http://www.w3.org/1999/xlink"><linearGradient id="a"><stop offset="0" stop-color="#0bd895"/><stop offset="1" stop-color="#4bdfff"/></linearGradient><linearGradient id="b" gradientUnits="userSpaceOnUse" x1="9.18368" x2="9.18368" xlink:href="#a" y1=".500488" y2="56.4991"/><linearGradient id="c" gradientUnits="userSpaceOnUse" x1="27.5407" x2="27.5407" xlink:href="#a" y1="10.4653" y2="46.4281"/><clipPath id="d"><path d="m0 .5h170v56h-170z"/></clipPath><g clip-path="url(#d)"><path d="m14.7965 35.2422c-3.8418-18.5894-.2026-30.78566-.2026-30.78566s-.9734 7.42506 6.683 19.39416c-.0964 14.8381 2.8881 22.5774 2.8881 22.5774l.6127-.4423-.6127.5221s-4.541-3.6255-9.3685-11.2657z" fill="#0a5959"/><path d="m32.8936 32.6103c1.8357 1.8103 3.5503 3.0624 4.7881 3.6594-.0074-.0024-.0148-.0073-.0223-.0121 0 0 1.391.4882 1.6356.1619 1.6948-1.7547 2.1099-5.0274.9808-11.1787-6.4631-3.611-7.2784-9.2379-7.2784-9.2379s-1.1636 7.8143-.1038 16.605z" fill="#0a5959"/><path d="m14.5937 4.45683s-5.31673 17.81347 3.6812 43.18977c.2446.7324 0 1.5445-.6547 2.0327l-9.48959 6.5066c-.8993.6502-2.20872.2442-2.61637-.8145-2.53732-6.7483-9.48961-29.1179-2.45579-53.59988.32859-.976482 1.39095-1.544482 2.37425-1.138423z" fill="url(#b)"/><path d="m32.7528 40.2454-8.5878 6.1827s-4.5805-11.8748-2.2087-34.4063c.163-1.3004 1.554-1.953 2.7004-1.3004l8.3432 5.2861s-1.6355 10.9805.7362 21.555c.2446 1.0562-.163 2.1149-.9808 2.6853z" fill="url(#c)"/><path d="m48.6215 26.4975-7.9356-5.124c-.4916-.3263-1.2278.1619-1.0623.7323 1.8826 8.2155 1.6355 12.2809-.3261 14.316-.2446.3263-1.6356-.1619-1.6356-.1619 1.3094.6502 1.6356.3263 1.6356.3263 1.3094-.9765 6.216-4.4739 9.324-6.5888 1.2279-.8943 1.2279-2.6853 0-3.4974z" fill="#4bdfff"/><path d="m77.1496 24.9991 6.2729-16.54451h-3.4811l-4.4125 12.29781-4.4125-12.29781h-3.6021l6.2481 16.54451zm11.4958.3021c1.2402 0 2.5991-.4664 3.2439-1.5396 0 .4665.0469 1.0031.0963 1.2375h3.029c-.0469-.3964-.1186-1.1892-.1186-2.0762v-9.4022h-3.1722v6.6734c0 1.3293-.8104 2.2623-2.2186 2.2623-1.4799 0-2.147-1.0272-2.147-2.3107v-6.6274h-3.1723v7.2559c0 2.4967 1.6208 4.527 4.4595 4.527zm14.7646.046c2.885 0 4.746-1.6557 5.341-3.6401l-2.648-.771c-.381 1.0272-1.194 1.7499-2.671 1.7499-1.574 0-2.886-1.0973-2.957-2.6128h8.395c0-.0459.047-.5124.047-.9571 0-3.686-2.169-5.9507-5.796-5.9507-3.005 0-5.7717 2.3807-5.7717 6.0425 0 3.8745 2.8387 6.1368 6.0577 6.1368zm2.384-7.3961h-5.248c.072-1.049.979-2.2624 2.624-2.2624 1.814 0 2.577 1.1191 2.624 2.2624zm-31.0779 31.8974c3.9357 0 6.1049-2.5669 6.1049-5.1096 0-2.3324-1.6455-4.2926-4.7214-4.8775l-2.3619-.4423c-1.2402-.2345-1.8356-.9572-1.8356-1.866 0-1.0973 1.05-2.1004 2.6485-2.1004 2.1469 0 2.9104 1.4237 3.0759 2.3325l2.9573-.8871c-.3805-1.8659-1.9567-4.2926-6.0579-4.2926-3.197 0-5.89 2.2406-5.89 5.1797 0 2.4967 1.7418 4.2007 4.4372 4.7373l2.3619.4665c1.3119.2562 2.0507 1.0031 2.0507 1.9602 0 1.1674-.9784 2.0303-2.7424 2.0303-2.3842 0-3.5528-1.4695-3.696-3.1034l-3.0537.7927c.2619 2.3566 2.2408 5.1797 6.725 5.1797zm13.8576 0c3.1254 0 4.961-1.9602 5.4848-3.8745l-2.7893-.9088c-.2619.8871-1.0723 1.9361-2.6955 1.9361-1.6231 0-3.0042-1.1675-3.0042-3.2437s1.3588-3.2194 2.982-3.2194 2.3125.9788 2.5991 1.936l2.8387-.933c-.5015-1.936-2.3125-3.8745-5.5094-3.8745-3.4095 0-6.0827 2.5427-6.0827 6.0909s2.7202 6.0909 6.1765 6.0909zm10.9942-.3504v-6.7435c.0717-1.2593.8601-2.2406 2.1941-2.2406 1.527 0 2.169 1.003 2.169 2.2865v6.6976h3.172v-7.2342c0-2.521-1.383-4.5488-4.365-4.5488-1.122 0-2.409.3722-3.1725 1.2592v-6.3688h-3.1723v16.8926h3.1723zm16.0271.3504c3.506 0 6.154-2.5669 6.154-6.0909s-2.648-6.0909-6.154-6.0909-6.155 2.5427-6.155 6.0909 2.649 6.0909 6.155 6.0909zm0-2.8231c-1.549 0-2.982-1.119-2.982-3.2678 0-2.1487 1.43-3.2678 2.982-3.2678 1.551 0 2.982 1.0973 2.982 3.2678s-1.431 3.2678-2.982 3.2678zm13.929 2.8231c3.506 0 6.154-2.5669 6.154-6.0909s-2.648-6.0909-6.154-6.0909-6.154 2.5427-6.154 6.0909 2.648 6.0909 6.154 6.0909zm0-2.8231c-1.549 0-2.982-1.119-2.982-3.2678 0-2.1487 1.431-3.2678 2.982-3.2678 1.552 0 2.982 1.0973 2.982 3.2678s-1.43 3.2678-2.982 3.2678zm11.829 2.4727v-16.8926h-3.172v16.8926zm5.248.1643c1.215 0 2.194-.9571 2.194-2.1221s-.979-2.1222-2.194-2.1222c-1.216 0-2.169.9572-2.169 2.1222s.978 2.1221 2.169 2.1221zm6.989-13.5111c1.097 0 1.957-.8629 1.957-1.8902 0-1.0272-.86-1.936-1.957-1.936s-1.956.8629-1.956 1.936c0 1.0732.882 1.8902 1.956 1.8902zm1.599 13.3468v-11.4809h-3.173v11.4809zm8.657.3504c3.506 0 6.154-2.5669 6.154-6.0909s-2.648-6.0909-6.154-6.0909-6.155 2.5427-6.155 6.0909 2.649 6.0909 6.155 6.0909zm0-2.8231c-1.549 0-2.982-1.119-2.982-3.2678 0-2.1487 1.43-3.2678 2.982-3.2678 1.551 0 2.982 1.0973 2.982 3.2678s-1.431 3.2678-2.982 3.2678z" fill="#fff"/></g></svg>